<?xml version="1.0" encoding="utf-8"?>
<!-- Generator: Adobe Illustrator 20.1.0, SVG Export Plug-In . SVG Version: 6.00 Build 0)  -->
<svg version="1.1" id="Layer_1" xmlns="http://www.w3.org/2000/svg" xmlns:xlink="http://www.w3.org/1999/xlink" x="0px" y="0px"
	 viewBox="0 0 960 960" style="enable-background:new 0 0 960 960;" xml:space="preserve">
<style type="text/css">
	.st0{fill:#484F6C;}
</style>
<g>
	<path class="st0" d="M782.2,104.5H236.4c-40.4,0-73.3,32.9-73.3,73.3v589.6h-43.9c-8.1,0-14.7,6.6-14.7,14.7
		c0,40.4,32.9,73.3,73.3,73.3h492.4c1.5,0,3-0.2,4.4-0.7c35.8-4.9,63.4-35.6,63.4-72.7V568.1c0-8.1-6.6-14.7-14.7-14.7
		c-8.1,0-14.7,6.6-14.7,14.7v214.1c0,24.3-19.7,44-44,44c-24.3,0-44-19.7-44-44c0-8.1-6.6-14.7-14.7-14.7H192.4V177.8
		c0-24.3,19.7-44,44-44h487.1c-9.2,12.3-14.7,27.5-14.7,44v272.9c0,8.1,6.6,14.7,14.7,14.7c8.1,0,14.7-6.6,14.7-14.7V192.5h102.7
		c8.1,0,14.7-6.6,14.7-14.7C855.5,137.4,822.6,104.5,782.2,104.5z M177.8,826.2c-19.1,0-35.4-12.3-41.5-29.3H593
		c2.2,10.8,6.8,20.8,13.2,29.3H177.8z M740.7,163.2c6.1-17.1,22.4-29.3,41.5-29.3c19.1,0,35.4,12.3,41.5,29.3H740.7z"/>
	<path class="st0" d="M633.8,699.4h-198c-8.1,0-14.7,6.6-14.7,14.7c0,8.1,6.6,14.7,14.7,14.7h198c8.1,0,14.7-6.6,14.7-14.7
		C648.5,705.9,641.9,699.4,633.8,699.4z"/>
	<path class="st0" d="M633.8,629h-198c-8.1,0-14.7,6.6-14.7,14.7c0,8.1,6.6,14.7,14.7,14.7h198c8.1,0,14.7-6.6,14.7-14.7
		C648.5,635.5,641.9,629,633.8,629z"/>
	<path class="st0" d="M418.4,502.8c0-8.1-6.6-14.7-14.7-14.7h-154c-8.1,0-14.7,6.6-14.7,14.7c0,8.1,6.6,14.7,14.7,14.7h154
		C411.8,517.5,418.4,510.9,418.4,502.8z"/>
	<path class="st0" d="M403.7,417.7h-154c-8.1,0-14.7,6.6-14.7,14.7c0,8.1,6.6,14.7,14.7,14.7h154c8.1,0,14.7-6.6,14.7-14.7
		C418.4,424.3,411.8,417.7,403.7,417.7z"/>
	<path class="st0" d="M633.8,277.6H480.2c-8.1,0-14.7,6.6-14.7,14.7s6.6,14.7,14.7,14.7h153.6c8.1,0,14.7-6.6,14.7-14.7
		S641.9,277.6,633.8,277.6z"/>
	<path class="st0" d="M633.8,207.2H480.2c-8.1,0-14.7,6.6-14.7,14.7c0,8.1,6.6,14.7,14.7,14.7h153.6c8.1,0,14.7-6.6,14.7-14.7
		C648.5,213.7,641.9,207.2,633.8,207.2z"/>
	<path class="st0" d="M428.4,198.8c0-4.7-2.2-9-5.9-11.8c-3.7-2.8-8.6-3.6-13-2.2l-117.3,36.1c-6.2,1.9-10.4,7.6-10.4,14V310
		c-4.6-1.6-9.5-2.5-14.7-2.5c-24.3,0-44,19.7-44,44c0,24.3,19.7,44,44,44c24.3,0,44-19.7,44-44V245.7l88-27.1v55.3
		c-4.6-1.6-9.5-2.5-14.7-2.5c-24.3,0-44,19.7-44,44c0,24.3,19.7,44,44,44c24.3,0,44-19.7,44-44V198.8z M267.1,366.2
		c-8.1,0-14.7-6.6-14.7-14.7c0-8.1,6.6-14.7,14.7-14.7c8.1,0,14.7,6.6,14.7,14.7C281.8,359.6,275.2,366.2,267.1,366.2z M384.4,330.1
		c-8.1,0-14.7-6.6-14.7-14.7c0-8.1,6.6-14.7,14.7-14.7c8.1,0,14.7,6.6,14.7,14.7C399.1,323.5,392.5,330.1,384.4,330.1z"/>
	<path class="st0" d="M648.5,386.1c0-4.7-2.2-9-6-11.8c-3.7-2.8-8.6-3.6-13-2.2l-117.3,36.1c-6.2,1.9-10.4,7.6-10.4,14v75.1
		c-4.6-1.6-9.5-2.5-14.7-2.5c-24.3,0-44,19.7-44,44c0,24.3,19.7,44,44,44c24.3,0,44-19.7,44-44V433l88-27.1v55.3
		c-4.6-1.6-9.5-2.5-14.7-2.5c-24.3,0-44,19.7-44,44s19.7,44,44,44s44-19.7,44-44V386.1z M487.1,553.4c-8.1,0-14.7-6.6-14.7-14.7
		c0-8.1,6.6-14.7,14.7-14.7c8.1,0,14.7,6.6,14.7,14.7C501.8,546.8,495.2,553.4,487.1,553.4z M604.4,517.3c-8.1,0-14.7-6.6-14.7-14.7
		c0-8.1,6.6-14.7,14.7-14.7s14.7,6.6,14.7,14.7C619.1,510.7,612.5,517.3,604.4,517.3z"/>
	<path class="st0" d="M353.6,564.8l-23.2-7.7c-4.5-1.5-9.4-0.7-13.2,2s-6.1,7.2-6.1,11.9v72.2c-4.6-1.6-9.5-2.5-14.7-2.5
		c-24.3,0-44,19.7-44,44c0,24.3,19.7,44,44,44c24.3,0,44-19.7,44-44v-93.4l3.9,1.3c11.8,3.9,20.5,13.4,23.5,25.5
		c1.9,7.9,9.9,12.7,17.7,10.8c7.9-1.9,12.7-9.8,10.8-17.7C391,589.2,375,571.9,353.6,564.8z M296.4,699.4c-8.1,0-14.7-6.6-14.7-14.7
		c0-8.1,6.6-14.7,14.7-14.7c8.1,0,14.7,6.6,14.7,14.7C311.1,692.8,304.5,699.4,296.4,699.4z"/>
	<path class="st0" d="M723.5,494.7c-3.9,0-7.6,1.6-10.4,4.3c-2.7,2.7-4.3,6.5-4.3,10.4c0,3.9,1.6,7.6,4.3,10.4
		c2.7,2.7,6.5,4.3,10.4,4.3c3.9,0,7.6-1.6,10.4-4.3c2.7-2.7,4.3-6.5,4.3-10.4c0-3.9-1.6-7.6-4.3-10.4
		C731.1,496.3,727.3,494.7,723.5,494.7z"/>
</g>
</svg>
